<?xml version="1.0" encoding="UTF-8"?>
<svg id="Layer_1" data-name="Layer 1" xmlns="http://www.w3.org/2000/svg" xmlns:xlink="http://www.w3.org/1999/xlink" viewBox="0 0 192 192">
  <defs>
    <style>
      .cls-1 {
        fill: #fff;
      }

      .cls-2 {
        fill: #ccc;
      }

      .cls-3 {
        fill: url(#linear-gradient);
      }
    </style>
    <linearGradient id="linear-gradient" x1="8.01" y1="8.01" x2="186.45" y2="186.45" gradientUnits="userSpaceOnUse">
      <stop offset="0" stop-color="#002133"/>
      <stop offset="1" stop-color="#127176"/>
    </linearGradient>
  </defs>
  <rect class="cls-3" y="0" width="192" height="192" rx="30" ry="30"/>
  <g>
    <path class="cls-1" d="M120.27,96.61c-16.13-13.96-38.24,30.14-50.7,36.7,.05-.2,2.81-3.94,3.18-4.46,6.69-9.33,11.97-19.41,18.58-28.81,5.21-7.4,12.9-16.84,23.07-11.88,1.73,.84,5.95,6.51,5.86,8.46Z"/>
    <path class="cls-2" d="M120.27,96.61c-16.13-13.96-38.24,30.14-50.7,36.7,.05-.2,2.81-3.94,3.18-4.46,6.69-9.33,11.97-19.41,18.58-28.81,5.21-7.4,12.9-16.84,23.07-11.88,1.73,.84,5.95,6.51,5.86,8.46Z"/>
    <path class="cls-1" d="M180.11,90.28c-.19,2.23-5.37,12.61-6.94,14.35-.43,1.04-2.17,3.77-2.83,4.81-3.9,6.2-8.03,12.05-13.76,16.68-3.81,3.15-10.25,5.78-15.28,5-15.35-2.38-13.52-25.31-21.02-34.51,.09-1.95-4.13-7.61-5.86-8.46-10.17-4.96-17.87,4.48-23.07,11.88-6.61,9.39-11.89,19.47-18.58,28.81-.37,.52-3.13,4.26-3.18,4.46-.04,.05-.07,.11-.12,.15-1.68,1.58-4.8,2.56-6.97,3.15-18.12,4.94-23.84-15.55-34.91-15.5-6.06,.03-11.74,7.38-15.69,11.39,3.17-12.03,6.08-24.48,11.98-35.56,1.13-2.12,2.78-5.12,5.26-5.78,5.15-1.37,11.83,7.39,15.1,10.63,1.3,1.29,2.73,2.5,4.3,3.47,3.67,2.25,7.93,2.84,11.94,1.07,11.88-5.24,27.78-33.63,39.58-43.85,3.97-3.44,8.61-6.08,13.77-7.25,4.75-1.07,9.96-.87,14.16,1.8,8.93,5.68,10.99,19.96,12.81,29.53,.65,3.43,1.42,6.82,2.16,10.23,.58,1.7,1.16,3.47,1.78,5.15,.89,1.69,1.39,2.64,2.73,4.04,4.43,4.64,11.19,2.39,15.63-.93,5.75-4.26,10.1-9.43,14.94-14.6,.48-.51,.76-.78,1.37-.9,.67,.33,.45,.08,.71,.73Z"/>
  </g>
</svg>