<?xml version="1.0" encoding="UTF-8"?>
<svg id="Layer_1" data-name="Layer 1" xmlns="http://www.w3.org/2000/svg" viewBox="0 0 793.22 1080">
  <defs>
    <style>
      .cls-1 {
        fill: #fff;
      }

      .cls-2 {
        fill: #ccc;
      }
    </style>
  </defs>
  <g>
    <path class="cls-1" d="M508.88,197.34c-74.86-64.78-177.47,139.86-235.25,170.29,.22-.94,13.03-18.29,14.77-20.71,31.04-43.3,55.56-90.09,86.24-133.67,24.16-34.35,59.87-78.17,107.07-55.15,8.03,3.91,27.61,30.2,27.17,39.24Z"/>
    <path class="cls-2" d="M508.88,197.34c-74.86-64.78-177.47,139.86-235.25,170.29,.22-.94,13.03-18.29,14.77-20.71,31.04-43.3,55.56-90.09,86.24-133.67,24.16-34.35,59.87-78.17,107.07-55.15,8.03,3.91,27.61,30.2,27.17,39.24Z"/>
    <path class="cls-1" d="M786.55,168c-.89,10.35-24.94,58.52-32.22,66.59-2.01,4.84-10.09,17.48-13.14,22.32-18.09,28.75-37.24,55.91-63.86,77.4-17.69,14.62-47.56,26.81-70.89,23.21-71.25-11.03-62.75-117.46-97.56-160.16,.44-9.04-19.14-35.33-27.17-39.24-47.2-23.02-82.91,20.8-107.07,55.15-30.67,43.59-55.19,90.37-86.24,133.67-1.73,2.42-14.54,19.78-14.77,20.71-.18,.23-.32,.5-.54,.7-7.78,7.33-22.29,11.89-32.35,14.64-84.07,22.94-110.63-72.18-161.98-71.95-28.11,.13-54.48,34.27-72.8,52.87,14.73-55.84,28.24-113.61,55.57-165.02,5.22-9.81,12.91-23.76,24.4-26.82,23.91-6.37,54.91,34.31,70.06,49.35,6.04,6,12.66,11.62,19.93,16.09,17.02,10.46,36.79,13.19,55.42,4.96,55.14-24.33,128.91-156.04,183.68-203.51,18.44-15.97,39.96-28.24,63.89-33.64,22.05-4.98,46.2-4.04,65.7,8.37,41.43,26.37,50.99,92.6,59.46,137.06,3.03,15.91,6.6,31.66,10.02,47.48,2.69,7.9,5.36,16.1,8.27,23.9,4.12,7.83,6.44,12.25,12.65,18.75,20.55,21.52,51.94,11.1,72.55-4.32,26.69-19.79,46.88-43.75,69.33-67.75,2.22-2.38,3.52-3.61,6.34-4.19,3.09,1.55,2.1,.39,3.29,3.37Z"/>
  </g>
  <g>
    <path class="cls-1" d="M526.76,917.56l28.45-.06c10.93,35.69,22.16,71.3,33.73,106.78,11.58-35.33,22.47-70.89,32.65-106.64l33.46-.15c-5.27,13.97-10.29,30.4-15.02,44.73-10.97,36.72-25.6,75.19-37.16,112.55l-28.19,.25c-12.07-36.77-21.67-74.46-34.35-111.67-8.95,34.09-24.07,77.29-34.89,111.51l-28.11,.2c-5.51-15.37-11.12-34.98-16.19-50.79-11.36-35.63-23-71.18-34.91-106.64l34.02-.05c9.8,34.61,21.78,70.72,32.76,105.12,11.52-34.97,22.78-70.03,33.75-105.16Z"/>
    <path class="cls-1" d="M20.7,917.55l26.55-.07c16.88,29.01,36.76,59.48,54.43,88.32,5.12-9.05,13.1-20.84,18.79-29.95l36.1-58.38c8.97,.18,18.21,.05,27.2,.03,.88,52.1-.56,105,.47,157.6h-30.92s0-53.64,0-53.64l-.04-44.1-52.08,78.51c-16.37-24.4-34.84-53.63-50.15-78.62,1.24,29.42,.07,67.65-.03,97.84-10.09-.14-20.43,0-30.54,.04l.23-157.57Z"/>
    <path class="cls-1" d="M337.99,917.44c-10.56,.05-21.12,0-31.67-.14-20.43,50.86-43.48,107.58-65.76,157.51l33.13-.16c3.97-10.62,9.27-26.13,13.85-36.1l46.83-.02,19.97,.02c4.41,11.43,9.32,25.22,14.1,36.28l33.32,.02c-21.48-49.05-43.89-107.21-63.77-157.41Zm-13.88,94.46l-25.2,.19,22.52-57.62c3.81,4.47,19.36,49.08,22.49,57.41l-19.81,.02Z"/>
    <path class="cls-1" d="M755.63,917.58l31.42-.1c-.15,22.99-.17,45.98-.07,68.98,.09,12.51,.78,32.36-.55,44.11-.68,6.36-2.29,12.59-4.8,18.48-14.26,32.94-52.62,33.45-81.02,20.74-8.05-4.42-14.66-9.81-21.75-15.57,6.06-8.1,13.04-16.64,19.34-24.64,1.26,1.54,2.54,3.05,3.87,4.52,15.02,16.56,46.34,22.94,52.44-5.21,2.38-11,1.23-28.93,1.22-40.64l-.1-70.66Z"/>
  </g>
  <g>
    <path class="cls-1" d="M786.28,639.88c-.2-31.87,2.38-65.32-12-94.83-16.56-33.98-50.72-45.31-86.34-45.08-28.56,2.05-54.48,11.06-73.5,33.28-31.29,36.53-30.71,73.96-30.36,118.3h-74.59c-.24-39.94,3.69-97.85-27.55-127.89-37.35-35.93-112-29.74-146.99,7.92-50.98,54.86-40.95,161.28,45.49,170.31,25.29,2.64,51.84,1.46,77.47,1.35-2.15,17.35-5.43,31.07-18.71,43.81-19.24,15.43-40.5,17.79-64.61,15.13-10.31-1.06-20.44-3.35-30.2-6.82-4.01,16.03-8.69,35.44-14.3,50.91,87.8,21.71,166.52-2.68,177.59-102.67l40.17-.1c25.46-.11,50,.99,70.09-16.86,52.17,30.24,111.94,24.08,168.95,16.99l-.61-63.75Zm-327.04,12.29c-11.95-.37-25.26-.05-37.33-.02-14.71,.14-36.23,1.95-48.46-5.76-26.45-16.66-21.49-67.87,1.77-85.57,7.78-5.91,12.77-7.53,21.78-9.42,70.53-7.51,61.93,52.74,62.24,100.77Zm278.2,.31c-16.04,1.58-32.17,2.21-48.28,1.85-18.7-1.36-53.78-5.3-55.78-29.34-1.53-18.39,1.52-40.85,13.36-55.71,10.26-12.9,21.72-17.07,37.32-18.69,27.71-2.05,49.89,16.87,52.33,44.04,1.71,18.92,1.1,38.88,1.05,57.85Z"/>
    <path class="cls-1" d="M107.55,502.89c39.12-.83,94.82-6.96,123.52,22.39,32.01,32.75,30.48,77.04,30.62,118.52-.03,19.8,.11,39.61,.4,59.42l-99.95,.15c-26.79,.06-85.25-7.08-93.34,28.61-10.6,46.72,22.38,61.02,58.97,72.58-4.48,15.39-8.67,30.87-12.56,46.42-12.6-2.88-22.15-5.43-34.26-9.9-12.37-5.81-21.09-10.8-31.13-20.29-38.04-35.81-41.77-103.05-4.25-140.64,30.3-30.36,64.44-27.77,104-27.78l64.16-.13c.58-71.16-3.51-102.94-87.34-99.17-25.45,1.14-48.14-.21-74.3,4.27,3.89-17.5,7.08-35.15,9.58-52.91,14.75-.18,31.19-.84,45.9-1.54Z"/>
    <path class="cls-1" d="M160.94,728.19c4.92,2.92,31.93,31.55,37.66,37.24-11.67,10.95-25.34,26.51-36.37,38.54-5.64-3.48-29.48-28.42-38.23-35.76l36.94-40.02Z"/>
  </g>
</svg>