<?xml version="1.0" encoding="UTF-8"?>
<svg id="Layer_1" data-name="Layer 1" xmlns="http://www.w3.org/2000/svg" xmlns:xlink="http://www.w3.org/1999/xlink" viewBox="0 0 793.22 640.88">
  <defs>
    <style>
      .cls-1 {
        fill: url(#linear-gradient-2);
      }

      .cls-2 {
        fill: #071b2e;
      }

      .cls-3 {
        fill: url(#linear-gradient);
      }
    </style>
    <linearGradient id="linear-gradient" x1="292.81" y1="248.62" x2="489.53" y2="277.93" gradientUnits="userSpaceOnUse">
      <stop offset="0" stop-color="#002133"/>
      <stop offset="1" stop-color="#127176"/>
    </linearGradient>
    <linearGradient id="linear-gradient-2" x1="38.14" y1="150.38" x2="773.22" y2="259.92" xlink:href="#linear-gradient"/>
  </defs>
  <g>
    <path class="cls-3" d="M509.23,197.34c-74.86-64.78-177.47,139.86-235.25,170.29,.22-.94,13.03-18.29,14.77-20.71,31.04-43.3,55.56-90.09,86.24-133.67,24.16-34.35,59.87-78.17,107.07-55.15,8.03,3.91,27.61,30.2,27.17,39.24Z"/>
    <path class="cls-2" d="M509.23,197.34c-74.86-64.78-177.47,139.86-235.25,170.29,.22-.94,13.03-18.29,14.77-20.71,31.04-43.3,55.56-90.09,86.24-133.67,24.16-34.35,59.87-78.17,107.07-55.15,8.03,3.91,27.61,30.2,27.17,39.24Z"/>
    <path class="cls-1" d="M786.9,168c-.89,10.35-24.94,58.52-32.22,66.59-2.01,4.84-10.09,17.48-13.14,22.32-18.09,28.75-37.24,55.91-63.86,77.4-17.69,14.62-47.56,26.81-70.89,23.21-71.25-11.03-62.75-117.46-97.56-160.16,.44-9.04-19.14-35.33-27.17-39.24-47.2-23.02-82.91,20.8-107.07,55.15-30.67,43.59-55.19,90.37-86.24,133.67-1.73,2.42-14.54,19.78-14.77,20.71-.18,.23-.32,.5-.54,.7-7.78,7.33-22.29,11.89-32.35,14.64-84.07,22.94-110.63-72.18-161.98-71.95-28.11,.13-54.48,34.27-72.8,52.87,14.73-55.84,28.24-113.61,55.57-165.02,5.22-9.81,12.91-23.76,24.4-26.82,23.91-6.37,54.91,34.31,70.06,49.35,6.04,6,12.66,11.62,19.93,16.09,17.02,10.46,36.79,13.19,55.42,4.96,55.14-24.33,128.91-156.04,183.68-203.51,18.44-15.97,39.96-28.24,63.89-33.64,22.05-4.98,46.2-4.04,65.7,8.37,41.43,26.37,50.99,92.6,59.46,137.06,3.03,15.91,6.6,31.66,10.02,47.48,2.69,7.9,5.36,16.1,8.27,23.9,4.12,7.83,6.44,12.25,12.65,18.75,20.55,21.52,51.94,11.1,72.55-4.32,26.69-19.79,46.88-43.75,69.33-67.75,2.22-2.38,3.52-3.61,6.34-4.19,3.09,1.55,2.1,.39,3.29,3.37Z"/>
  </g>
  <g>
    <path class="cls-2" d="M519.51,480.84l28.45-.06c10.93,35.69,22.16,71.3,33.73,106.78,11.58-35.33,22.47-70.89,32.65-106.64l33.46-.15c-5.27,13.97-10.29,30.4-15.02,44.73-10.97,36.72-25.6,75.19-37.16,112.55l-28.19,.25c-12.07-36.77-21.67-74.46-34.35-111.67-8.95,34.09-24.07,77.29-34.89,111.51l-28.11,.2c-5.51-15.37-11.12-34.98-16.19-50.79-11.36-35.63-23-71.18-34.91-106.64l34.02-.05c9.8,34.61,21.78,70.72,32.76,105.12,11.52-34.97,22.78-70.03,33.75-105.16Z"/>
    <path class="cls-2" d="M13.45,480.83l26.55-.07c16.88,29.01,36.76,59.48,54.43,88.32,5.12-9.05,13.1-20.84,18.79-29.95l36.1-58.38c8.97,.18,18.21,.05,27.2,.03,.88,52.1-.56,105,.47,157.6h-30.92s0-53.64,0-53.64l-.04-44.1-52.08,78.51c-16.37-24.4-34.84-53.63-50.15-78.62,1.24,29.42,.07,67.65-.03,97.84-10.09-.14-20.43,0-30.54,.04l.23-157.57Z"/>
    <path class="cls-2" d="M330.74,480.72c-10.56,.05-21.12,0-31.67-.14-20.43,50.86-43.48,107.58-65.76,157.51l33.13-.16c3.97-10.62,9.27-26.13,13.85-36.1l46.83-.02,19.97,.02c4.41,11.43,9.32,25.22,14.1,36.28l33.32,.02c-21.48-49.05-43.89-107.21-63.77-157.41Zm-13.88,94.46l-25.2,.19,22.52-57.62c3.81,4.47,19.36,49.08,22.49,57.41l-19.81,.02Z"/>
    <path class="cls-2" d="M748.39,480.86l31.42-.1c-.15,22.99-.17,45.98-.07,68.98,.09,12.51,.78,32.36-.55,44.11-.68,6.36-2.29,12.59-4.8,18.48-14.26,32.94-52.62,33.45-81.02,20.74-8.05-4.42-14.66-9.81-21.75-15.57,6.06-8.1,13.04-16.64,19.34-24.64,1.26,1.54,2.54,3.05,3.87,4.52,15.02,16.56,46.34,22.94,52.44-5.21,2.38-11,1.23-28.93,1.22-40.64l-.1-70.66Z"/>
  </g>
</svg>